<svg width="34" height="38" viewBox="0 0 34 38" fill="none" xmlns="http://www.w3.org/2000/svg">
<mask id="mask0_1761_24998" style="mask-type:alpha" maskUnits="userSpaceOnUse" x="0" y="0" width="34" height="38">
<path fill-rule="evenodd" clip-rule="evenodd" d="M3.3378 18.845C7.97193 4.6266 14.303 0.686151 16.9174 0.48537V0.483459L16.9306 0.484385L16.9438 0.483459V0.48537C19.5582 0.686152 25.8892 4.6266 30.5234 18.845C35.1732 33.1114 32.1085 36.9423 32.1085 36.9423C32.1085 36.9423 27.9607 37.9462 24.579 33.5077C23.343 31.8854 22.1399 30.8137 21.0548 30.1262C25.5609 27.2929 22.8712 20.1161 17.4103 11.985C9.6316 22.124 8.97623 27.7949 12.8019 30.129C11.7181 30.8166 10.5165 31.8876 9.28218 33.5077C5.9005 37.9462 1.75263 36.9423 1.75263 36.9423C1.75263 36.9423 -1.31202 33.1114 3.3378 18.845ZM14.7282 29.2329C15.6691 28.9578 16.4203 28.987 16.8842 29.1291C16.1482 27.6269 16.2747 25.7437 16.479 22.7036C16.4846 22.62 16.4903 22.5354 16.496 22.45C14.928 25.4655 14.6935 27.2781 14.7282 29.2329Z" fill="#99D000"/>
</mask>
<g mask="url(#mask0_1761_24998)">
<g filter="url(#filter0_i_1761_24998)">
<path fill-rule="evenodd" clip-rule="evenodd" d="M3.3378 18.845C7.97193 4.6266 14.303 0.686151 16.9174 0.48537V0.483459L16.9306 0.484385L16.9438 0.483459V0.48537C19.5582 0.686152 25.8892 4.6266 30.5234 18.845C35.1732 33.1114 32.1085 36.9423 32.1085 36.9423C32.1085 36.9423 27.9607 37.9462 24.579 33.5077C23.343 31.8854 22.1399 30.8137 21.0548 30.1262C25.5609 27.2929 22.8712 20.1161 17.4103 11.985C9.6316 22.124 8.97623 27.7949 12.8019 30.129C11.7181 30.8166 10.5165 31.8876 9.28218 33.5077C5.9005 37.9462 1.75263 36.9423 1.75263 36.9423C1.75263 36.9423 -1.31202 33.1114 3.3378 18.845ZM14.7282 29.2329C15.6691 28.9578 16.4203 28.987 16.8842 29.1291C16.1482 27.6269 16.2747 25.7437 16.479 22.7036C16.4846 22.62 16.4903 22.5354 16.496 22.45C14.928 25.4655 14.6935 27.2781 14.7282 29.2329Z" fill="#FFFF04"/>
</g>
</g>
<defs>
<filter id="filter0_i_1761_24998" x="0.761719" y="0.483459" width="32.3379" height="37.423" filterUnits="userSpaceOnUse" color-interpolation-filters="sRGB">
<feFlood flood-opacity="0" result="BackgroundImageFix"/>
<feBlend mode="normal" in="SourceGraphic" in2="BackgroundImageFix" result="shape"/>
<feColorMatrix in="SourceAlpha" type="matrix" values="0 0 0 0 0 0 0 0 0 0 0 0 0 0 0 0 0 0 127 0" result="hardAlpha"/>
<feOffset dy="0.866781"/>
<feGaussianBlur stdDeviation="1.62521"/>
<feComposite in2="hardAlpha" operator="arithmetic" k2="-1" k3="1"/>
<feColorMatrix type="matrix" values="0 0 0 0 0 0 0 0 0 0 0 0 0 0 0 0 0 0 0.25 0"/>
<feBlend mode="normal" in2="shape" result="effect1_innerShadow_1761_24998"/>
</filter>
</defs>
</svg>
