<svg width="158" height="44" viewBox="0 0 158 44" fill="none" xmlns="http://www.w3.org/2000/svg">
<mask id="mask0_1761_24996" style="mask-type:alpha" maskUnits="userSpaceOnUse" x="0" y="3" width="34" height="38">
<path fill-rule="evenodd" clip-rule="evenodd" d="M3.3378 21.845C7.97193 7.6266 14.303 3.68615 16.9174 3.48537V3.48346L16.9306 3.48439L16.9438 3.48346V3.48537C19.5582 3.68615 25.8892 7.6266 30.5234 21.845C35.1732 36.1114 32.1085 39.9423 32.1085 39.9423C32.1085 39.9423 27.9607 40.9462 24.579 36.5077C23.343 34.8854 22.1399 33.8137 21.0548 33.1262C25.5609 30.2929 22.8712 23.1161 17.4103 14.985C9.6316 25.124 8.97623 30.7949 12.8019 33.129C11.7181 33.8166 10.5165 34.8876 9.28218 36.5077C5.9005 40.9462 1.75263 39.9423 1.75263 39.9423C1.75263 39.9423 -1.31202 36.1114 3.3378 21.845ZM14.7282 32.2329C15.6691 31.9578 16.4203 31.987 16.8842 32.1291C16.1482 30.6269 16.2747 28.7437 16.479 25.7036C16.4846 25.62 16.4903 25.5354 16.496 25.45C14.928 28.4655 14.6935 30.2781 14.7282 32.2329Z" fill="#99D000"/>
</mask>
<g mask="url(#mask0_1761_24996)">
<g filter="url(#filter0_i_1761_24996)">
<path fill-rule="evenodd" clip-rule="evenodd" d="M3.3378 21.845C7.97193 7.6266 14.303 3.68615 16.9174 3.48537V3.48346L16.9306 3.48439L16.9438 3.48346V3.48537C19.5582 3.68615 25.8892 7.6266 30.5234 21.845C35.1732 36.1114 32.1085 39.9423 32.1085 39.9423C32.1085 39.9423 27.9607 40.9462 24.579 36.5077C23.343 34.8854 22.1399 33.8137 21.0548 33.1262C25.5609 30.2929 22.8712 23.1161 17.4103 14.985C9.6316 25.124 8.97623 30.7949 12.8019 33.129C11.7181 33.8166 10.5165 34.8876 9.28218 36.5077C5.9005 40.9462 1.75263 39.9423 1.75263 39.9423C1.75263 39.9423 -1.31202 36.1114 3.3378 21.845ZM14.7282 32.2329C15.6691 31.9578 16.4203 31.987 16.8842 32.1291C16.1482 30.6269 16.2747 28.7437 16.479 25.7036C16.4846 25.62 16.4903 25.5354 16.496 25.45C14.928 28.4655 14.6935 30.2781 14.7282 32.2329Z" fill="#FFFF04"/>
</g>
</g>
<path d="M47.9883 24L53.8601 6.97852H57.8813L63.7532 24H60.3717L59.1608 20.3444H52.5807L51.3469 24H47.9883ZM53.4717 17.6027H58.2697L55.4366 9.1262H56.3048L53.4717 17.6027ZM70.9817 29.0265C70.0526 29.0265 69.192 28.8742 68.4 28.5695C67.6079 28.2649 66.9225 27.8384 66.3437 27.2901C65.7801 26.7569 65.3688 26.1248 65.1099 25.3937L67.8973 24.3427C68.0801 24.9215 68.438 25.3861 68.9712 25.7364C69.5195 26.102 70.1897 26.2848 70.9817 26.2848C71.591 26.2848 72.1241 26.1705 72.5811 25.942C73.0533 25.7136 73.4188 25.3785 73.6778 24.9368C73.9367 24.5103 74.0662 23.9924 74.0662 23.3831V20.55L74.6374 21.2354C74.2109 21.9818 73.6397 22.5454 72.9238 22.9262C72.2079 23.307 71.393 23.4974 70.4791 23.4974C69.3215 23.4974 68.2857 23.2308 67.3718 22.6977C66.4579 22.1646 65.742 21.4335 65.2241 20.5043C64.7063 19.5752 64.4473 18.5318 64.4473 17.3742C64.4473 16.2013 64.7063 15.158 65.2241 14.2441C65.742 13.3302 66.4503 12.6143 67.349 12.0964C68.2476 11.5633 69.2682 11.2967 70.4106 11.2967C71.3397 11.2967 72.1546 11.4947 72.8552 11.8908C73.5711 12.2716 74.1652 12.8275 74.6374 13.5586L74.2261 14.3126V11.5709H77.0592V23.3831C77.0592 24.4646 76.7927 25.4318 76.2595 26.2848C75.7417 27.1377 75.0258 27.8079 74.1119 28.2954C73.2132 28.7828 72.1698 29.0265 70.9817 29.0265ZM70.8447 20.7328C71.4844 20.7328 72.0404 20.5957 72.5125 20.3215C73 20.0321 73.3807 19.6361 73.6549 19.1335C73.9291 18.6308 74.0662 18.052 74.0662 17.397C74.0662 16.7573 73.9215 16.1861 73.6321 15.6835C73.3579 15.1656 72.9771 14.7619 72.4897 14.4725C72.0175 14.1831 71.4692 14.0384 70.8447 14.0384C70.2202 14.0384 69.6566 14.1831 69.1539 14.4725C68.6513 14.7619 68.2553 15.1656 67.9659 15.6835C67.6917 16.1861 67.5546 16.7573 67.5546 17.397C67.5546 18.0368 67.6917 18.608 67.9659 19.1106C68.2553 19.6133 68.6437 20.0093 69.1311 20.2987C69.6337 20.5881 70.2049 20.7328 70.8447 20.7328ZM79.8545 24V11.5709H82.6647V14.3355L82.4363 13.9242C82.7257 12.9951 83.175 12.3477 83.7843 11.9821C84.4088 11.6166 85.1551 11.4338 86.0233 11.4338H86.7545V14.0841H85.6806C84.8276 14.0841 84.1422 14.3507 83.6243 14.8838C83.1065 15.4017 82.8475 16.1328 82.8475 17.0772V24H79.8545ZM88.4 24V11.5709H91.3931V24H88.4ZM88.4 10.1772V6.97852H91.3931V10.1772H88.4ZM94.1566 24V11.5709H96.9668V14.4497L96.6469 13.9699C96.8754 13.0712 97.3324 12.401 98.0178 11.9593C98.7032 11.5176 99.5105 11.2967 100.44 11.2967C101.46 11.2967 102.359 11.5633 103.136 12.0964C103.912 12.6295 104.415 13.3302 104.644 14.1984L103.798 14.2669C104.179 13.2768 104.75 12.5381 105.512 12.0507C106.273 11.548 107.149 11.2967 108.139 11.2967C109.023 11.2967 109.807 11.4947 110.493 11.8908C111.193 12.2868 111.742 12.8427 112.138 13.5586C112.534 14.2593 112.732 15.0742 112.732 16.0033V24H109.739V16.7116C109.739 16.1633 109.64 15.6911 109.442 15.2951C109.244 14.899 108.969 14.5944 108.619 14.3811C108.269 14.1527 107.842 14.0384 107.34 14.0384C106.867 14.0384 106.449 14.1527 106.083 14.3811C105.717 14.5944 105.436 14.899 105.238 15.2951C105.04 15.6911 104.941 16.1633 104.941 16.7116V24H101.948V16.7116C101.948 16.1633 101.849 15.6911 101.651 15.2951C101.453 14.899 101.171 14.5944 100.805 14.3811C100.455 14.1527 100.036 14.0384 99.5486 14.0384C99.0764 14.0384 98.6575 14.1527 98.292 14.3811C97.9264 14.5944 97.6446 14.899 97.4466 15.2951C97.2486 15.6911 97.1496 16.1633 97.1496 16.7116V24H94.1566ZM119.034 24.2742C118.165 24.2742 117.412 24.1295 116.772 23.8401C116.132 23.5507 115.637 23.1394 115.287 22.6063C114.936 22.058 114.761 21.4258 114.761 20.7099C114.761 20.0245 114.914 19.4152 115.218 18.8821C115.523 18.3338 115.995 17.8768 116.635 17.5113C117.274 17.1457 118.082 16.8868 119.057 16.7345L123.123 16.0719V18.3566L119.628 18.9507C119.034 19.0573 118.592 19.2477 118.303 19.5219C118.013 19.796 117.868 20.154 117.868 20.5957C117.868 21.0222 118.028 21.3649 118.348 21.6238C118.683 21.8676 119.095 21.9894 119.582 21.9894C120.207 21.9894 120.755 21.8599 121.227 21.601C121.714 21.3268 122.088 20.9536 122.347 20.4815C122.621 20.0093 122.758 19.4914 122.758 18.9278V15.7292C122.758 15.196 122.545 14.7543 122.118 14.404C121.707 14.0384 121.159 13.8557 120.473 13.8557C119.833 13.8557 119.262 14.0308 118.76 14.3811C118.272 14.7162 117.914 15.1656 117.686 15.7292L115.241 14.5411C115.485 13.8861 115.865 13.3225 116.383 12.8504C116.916 12.3629 117.541 11.9821 118.257 11.708C118.973 11.4338 119.75 11.2967 120.587 11.2967C121.608 11.2967 122.507 11.4871 123.283 11.8679C124.06 12.2335 124.662 12.7514 125.088 13.4215C125.53 14.0765 125.751 14.8457 125.751 15.7292V24H122.918V21.8752L123.558 21.8295C123.238 22.3626 122.857 22.8119 122.415 23.1775C121.973 23.5278 121.471 23.802 120.907 24C120.344 24.1828 119.719 24.2742 119.034 24.2742ZM133.96 24.1371C132.559 24.1371 131.47 23.7563 130.693 22.9947C129.932 22.2179 129.551 21.1288 129.551 19.7275V14.2441H127.403V11.5709H127.632C128.241 11.5709 128.713 11.411 129.048 11.0911C129.383 10.7712 129.551 10.3067 129.551 9.69739V8.73779H132.544V11.5709H135.4V14.2441H132.544V19.5676C132.544 19.9788 132.612 20.3291 132.749 20.6186C132.902 20.908 133.13 21.1288 133.435 21.2811C133.755 21.4335 134.158 21.5096 134.646 21.5096C134.752 21.5096 134.874 21.502 135.011 21.4868C135.164 21.4715 135.308 21.4563 135.445 21.4411V24C135.232 24.0305 134.988 24.0609 134.714 24.0914C134.44 24.1219 134.189 24.1371 133.96 24.1371ZM143.515 24.2742C142.236 24.2742 141.116 23.9848 140.157 23.406C139.197 22.8272 138.451 22.0427 137.918 21.0527C137.384 20.0626 137.118 18.9659 137.118 17.7626C137.118 16.5136 137.384 15.4093 137.918 14.4497C138.466 13.4749 139.205 12.7057 140.134 12.1421C141.078 11.5785 142.129 11.2967 143.287 11.2967C144.262 11.2967 145.115 11.4567 145.846 11.7765C146.592 12.0964 147.224 12.5381 147.742 13.1017C148.26 13.6653 148.656 14.3126 148.93 15.0437C149.204 15.7596 149.341 16.5364 149.341 17.3742C149.341 17.5874 149.326 17.8083 149.296 18.0368C149.28 18.2652 149.242 18.4633 149.181 18.6308H139.585V16.346H147.491L146.074 17.4199C146.211 16.7192 146.173 16.0947 145.96 15.5464C145.762 14.998 145.427 14.5639 144.955 14.2441C144.498 13.9242 143.942 13.7643 143.287 13.7643C142.662 13.7643 142.106 13.9242 141.619 14.2441C141.132 14.5487 140.758 15.0057 140.499 15.6149C140.256 16.209 140.164 16.9325 140.225 17.7854C140.164 18.547 140.263 19.2248 140.522 19.8189C140.796 20.3977 141.192 20.847 141.71 21.1669C142.243 21.4868 142.853 21.6467 143.538 21.6467C144.224 21.6467 144.802 21.502 145.275 21.2126C145.762 20.9232 146.143 20.5348 146.417 20.0474L148.839 21.2354C148.595 21.8295 148.214 22.355 147.696 22.8119C147.179 23.2689 146.562 23.6268 145.846 23.8858C145.145 24.1447 144.368 24.2742 143.515 24.2742Z" fill="white"/>
<path d="M46.5751 41.5232V33.5798H49.4646C49.9977 33.5798 50.4669 33.6793 50.872 33.8784C51.2843 34.0703 51.6042 34.3546 51.8316 34.7314C52.0591 35.101 52.1728 35.5452 52.1728 36.0641C52.1728 36.5759 52.0555 37.0166 51.821 37.3863C51.5935 37.7559 51.2772 38.0402 50.872 38.2392C50.4669 38.4383 49.9977 38.5378 49.4646 38.5378H47.8333V41.5232H46.5751ZM47.8333 37.4182H49.4966C49.7809 37.4182 50.0297 37.3614 50.243 37.2476C50.4562 37.1339 50.6232 36.9775 50.7441 36.7785C50.8649 36.5724 50.9253 36.3307 50.9253 36.0535C50.9253 35.7763 50.8649 35.5381 50.7441 35.3391C50.6232 35.133 50.4562 34.9766 50.243 34.87C50.0297 34.7562 49.7809 34.6994 49.4966 34.6994H47.8333V37.4182ZM55.8508 41.6511C55.275 41.6511 54.7632 41.5196 54.3154 41.2566C53.8747 40.9865 53.53 40.624 53.2812 40.1691C53.0324 39.7071 52.908 39.1917 52.908 38.6231C52.908 38.0402 53.0324 37.5249 53.2812 37.077C53.5371 36.6292 53.8783 36.2774 54.3048 36.0215C54.7313 35.7585 55.2146 35.627 55.7548 35.627C56.1884 35.627 56.5758 35.7016 56.917 35.8509C57.2582 36.0002 57.5461 36.2063 57.7806 36.4693C58.0152 36.7252 58.1929 37.0202 58.3138 37.3543C58.4417 37.6883 58.5057 38.0438 58.5057 38.4205C58.5057 38.5129 58.5021 38.6089 58.495 38.7084C58.4879 38.8079 58.4737 38.9003 58.4524 38.9856H53.8569V38.026H57.77L57.1942 38.4631C57.2653 38.1148 57.2404 37.8056 57.1196 37.5355C57.0059 37.2583 56.8282 37.0415 56.5865 36.8851C56.3519 36.7216 56.0747 36.6399 55.7548 36.6399C55.435 36.6399 55.1506 36.7216 54.9018 36.8851C54.6531 37.0415 54.4611 37.269 54.3261 37.5675C54.191 37.8589 54.1377 38.2143 54.1662 38.6337C54.1306 39.0247 54.1839 39.3659 54.3261 39.6573C54.4754 39.9487 54.6815 40.1762 54.9445 40.3397C55.2146 40.5032 55.5203 40.5849 55.8614 40.5849C56.2097 40.5849 56.5047 40.5067 56.7464 40.3503C56.9952 40.194 57.1907 39.9914 57.3328 39.7426L58.3138 40.2224C58.2 40.4925 58.0223 40.7377 57.7806 40.9581C57.5461 41.1713 57.2618 41.3419 56.9277 41.4699C56.6007 41.5907 56.2417 41.6511 55.8508 41.6511ZM59.6815 41.5232V35.7549H60.833V36.9171L60.7264 36.7465C60.8544 36.3698 61.0605 36.0997 61.3448 35.9362C61.6292 35.7656 61.9703 35.6803 62.3684 35.6803H62.7203V36.7785H62.2191C61.8211 36.7785 61.4977 36.9029 61.2489 37.1517C61.0072 37.3934 60.8864 37.7417 60.8864 38.1966V41.5232H59.6815ZM65.6023 41.6511C65.1687 41.6511 64.7884 41.5552 64.4614 41.3633C64.1345 41.1642 63.8786 40.8906 63.6938 40.5423C63.5161 40.1869 63.4272 39.7781 63.4272 39.3161V35.7549H64.632V39.2095C64.632 39.4725 64.6854 39.7035 64.792 39.9025C64.8986 40.1016 65.0479 40.2579 65.2398 40.3717C65.4317 40.4783 65.6521 40.5316 65.9008 40.5316C66.1567 40.5316 66.3806 40.4747 66.5726 40.361C66.7645 40.2473 66.9138 40.0873 67.0204 39.8812C67.1341 39.6751 67.191 39.4334 67.191 39.1562V35.7549H68.3851V41.5232H67.2443V40.393L67.3722 40.5423C67.2372 40.8977 67.0133 41.1713 66.7005 41.3633C66.3878 41.5552 66.0217 41.6511 65.6023 41.6511ZM71.9243 41.6511C71.3344 41.6511 70.8155 41.5054 70.3677 41.214C69.9269 40.9226 69.6177 40.5316 69.44 40.0411L70.3677 39.604C70.524 39.931 70.7373 40.1904 71.0074 40.3823C71.2846 40.5743 71.5903 40.6702 71.9243 40.6702C72.2087 40.6702 72.4397 40.6062 72.6174 40.4783C72.7951 40.3503 72.8839 40.1762 72.8839 39.9558C72.8839 39.8137 72.8448 39.7 72.7667 39.6147C72.6885 39.5222 72.589 39.4476 72.4681 39.3907C72.3544 39.3339 72.2371 39.2912 72.1163 39.2628L71.21 39.0069C70.7124 38.8647 70.3392 38.6515 70.0904 38.3672C69.8488 38.0757 69.7279 37.7381 69.7279 37.3543C69.7279 37.006 69.8168 36.7039 69.9945 36.448C70.1722 36.185 70.4174 35.9824 70.7302 35.8402C71.0429 35.6981 71.3948 35.627 71.7857 35.627C72.3117 35.627 72.7809 35.7585 73.1931 36.0215C73.6054 36.2774 73.8968 36.6363 74.0674 37.0984L73.1398 37.5355C73.0261 37.2583 72.8448 37.038 72.5961 36.8745C72.3544 36.711 72.0807 36.6292 71.7751 36.6292C71.5121 36.6292 71.3024 36.6932 71.146 36.8212C70.9896 36.942 70.9114 37.1019 70.9114 37.301C70.9114 37.436 70.947 37.5497 71.018 37.6421C71.0891 37.7274 71.1815 37.7985 71.2953 37.8554C71.409 37.9051 71.5263 37.9478 71.6471 37.9833L72.5854 38.2606C73.0616 38.3956 73.4277 38.6089 73.6836 38.9003C73.9395 39.1846 74.0674 39.5258 74.0674 39.9239C74.0674 40.2651 73.975 40.5671 73.7902 40.8301C73.6125 41.086 73.3637 41.2886 73.0439 41.4379C72.724 41.5801 72.3508 41.6511 71.9243 41.6511ZM76.9752 41.6511C76.5843 41.6511 76.2395 41.5836 75.941 41.4486C75.6496 41.3064 75.4221 41.1145 75.2586 40.8728C75.0951 40.624 75.0134 40.3326 75.0134 39.9985C75.0134 39.6857 75.0809 39.405 75.216 39.1562C75.3581 38.9074 75.5749 38.6977 75.8664 38.5271C76.1578 38.3565 76.5239 38.2357 76.9646 38.1646L78.9691 37.8341V38.783L77.1991 39.0922C76.8793 39.1491 76.6447 39.2521 76.4954 39.4014C76.3462 39.5436 76.2715 39.7284 76.2715 39.9558C76.2715 40.1762 76.3533 40.3575 76.5168 40.4996C76.6874 40.6347 76.9042 40.7022 77.1672 40.7022C77.4941 40.7022 77.7785 40.6311 78.0201 40.489C78.2689 40.3468 78.4608 40.1584 78.5959 39.9239C78.7309 39.6822 78.7985 39.4156 78.7985 39.1242V37.6421C78.7985 37.3578 78.6919 37.1268 78.4786 36.9491C78.2725 36.7643 77.9953 36.6719 77.647 36.6719C77.3271 36.6719 77.0463 36.7572 76.8046 36.9278C76.5701 37.0913 76.3959 37.3045 76.2822 37.5675L75.2799 37.0664C75.3866 36.7821 75.5607 36.5333 75.8024 36.32C76.0441 36.0997 76.3248 35.9291 76.6447 35.8082C76.9717 35.6874 77.3164 35.627 77.6789 35.627C78.1339 35.627 78.5355 35.7123 78.8838 35.8829C79.2392 36.0535 79.5128 36.2916 79.7048 36.5972C79.9038 36.8958 80.0033 37.2441 80.0033 37.6421V41.5232H78.8518V40.4783L79.097 40.5103C78.962 40.7449 78.7878 40.9474 78.5746 41.118C78.3684 41.2886 78.1303 41.4201 77.8602 41.5125C77.5972 41.6049 77.3022 41.6511 76.9752 41.6511ZM81.4121 41.5232V33.4519H82.6169V36.8851L82.425 36.7359C82.5671 36.3733 82.7946 36.0997 83.1073 35.9149C83.4201 35.7229 83.7826 35.627 84.1949 35.627C84.6214 35.627 84.9981 35.7194 85.3251 35.9042C85.6521 36.089 85.908 36.3449 86.0928 36.6719C86.2776 36.9989 86.37 37.372 86.37 37.7914V41.5232H85.1758V38.1219C85.1758 37.8305 85.119 37.5853 85.0052 37.3863C84.8986 37.1801 84.7493 37.0237 84.5574 36.9171C84.3655 36.8034 84.1451 36.7465 83.8964 36.7465C83.6547 36.7465 83.4343 36.8034 83.2353 36.9171C83.0434 37.0237 82.8905 37.1801 82.7768 37.3863C82.6702 37.5924 82.6169 37.8376 82.6169 38.1219V41.5232H81.4121ZM89.3867 41.6511C88.9958 41.6511 88.651 41.5836 88.3525 41.4486C88.0611 41.3064 87.8336 41.1145 87.6701 40.8728C87.5066 40.624 87.4249 40.3326 87.4249 39.9985C87.4249 39.6857 87.4924 39.405 87.6275 39.1562C87.7696 38.9074 87.9864 38.6977 88.2779 38.5271C88.5693 38.3565 88.9354 38.2357 89.3761 38.1646L91.3806 37.8341V38.783L89.6106 39.0922C89.2908 39.1491 89.0562 39.2521 88.9069 39.4014C88.7577 39.5436 88.683 39.7284 88.683 39.9558C88.683 40.1762 88.7648 40.3575 88.9283 40.4996C89.0988 40.6347 89.3156 40.7022 89.5786 40.7022C89.9056 40.7022 90.19 40.6311 90.4316 40.489C90.6804 40.3468 90.8723 40.1584 91.0074 39.9239C91.1424 39.6822 91.21 39.4156 91.21 39.1242V37.6421C91.21 37.3578 91.1033 37.1268 90.8901 36.9491C90.684 36.7643 90.4067 36.6719 90.0584 36.6719C89.7386 36.6719 89.4578 36.7572 89.2161 36.9278C88.9816 37.0913 88.8074 37.3045 88.6937 37.5675L87.6914 37.0664C87.7981 36.7821 87.9722 36.5333 88.2139 36.32C88.4556 36.0997 88.7363 35.9291 89.0562 35.8082C89.3832 35.6874 89.7279 35.627 90.0904 35.627C90.5454 35.627 90.947 35.7123 91.2953 35.8829C91.6507 36.0535 91.9243 36.2916 92.1163 36.5972C92.3153 36.8958 92.4148 37.2441 92.4148 37.6421V41.5232H91.2633V40.4783L91.5085 40.5103C91.3735 40.7449 91.1993 40.9474 90.9861 41.118C90.7799 41.2886 90.5418 41.4201 90.2717 41.5125C90.0087 41.6049 89.7137 41.6511 89.3867 41.6511ZM95.5508 41.6511C95.1599 41.6511 94.8151 41.5836 94.5166 41.4486C94.2252 41.3064 93.9977 41.1145 93.8342 40.8728C93.6707 40.624 93.589 40.3326 93.589 39.9985C93.589 39.6857 93.6565 39.405 93.7916 39.1562C93.9337 38.9074 94.1505 38.6977 94.442 38.5271C94.7334 38.3565 95.0995 38.2357 95.5402 38.1646L97.5447 37.8341V38.783L95.7747 39.0922C95.4549 39.1491 95.2203 39.2521 95.071 39.4014C94.9218 39.5436 94.8471 39.7284 94.8471 39.9558C94.8471 40.1762 94.9289 40.3575 95.0924 40.4996C95.2629 40.6347 95.4797 40.7022 95.7427 40.7022C96.0697 40.7022 96.3541 40.6311 96.5957 40.489C96.8445 40.3468 97.0364 40.1584 97.1715 39.9239C97.3065 39.6822 97.3741 39.4156 97.3741 39.1242V37.6421C97.3741 37.3578 97.2674 37.1268 97.0542 36.9491C96.8481 36.7643 96.5708 36.6719 96.2226 36.6719C95.9027 36.6719 95.6219 36.7572 95.3802 36.9278C95.1457 37.0913 94.9715 37.3045 94.8578 37.5675L93.8555 37.0664C93.9622 36.7821 94.1363 36.5333 94.378 36.32C94.6197 36.0997 94.9004 35.9291 95.2203 35.8082C95.5473 35.6874 95.892 35.627 96.2545 35.627C96.7095 35.627 97.1111 35.7123 97.4594 35.8829C97.8148 36.0535 98.0884 36.2916 98.2804 36.5972C98.4794 36.8958 98.5789 37.2441 98.5789 37.6421V41.5232H97.4274V40.4783L97.6726 40.5103C97.5376 40.7449 97.3634 40.9474 97.1502 41.118C96.944 41.2886 96.7059 41.4201 96.4358 41.5125C96.1728 41.6049 95.8778 41.6511 95.5508 41.6511ZM99.9876 41.5232V35.7549H101.139V36.8851L101.001 36.7359C101.143 36.3733 101.37 36.0997 101.683 35.9149C101.996 35.7229 102.358 35.627 102.77 35.627C103.197 35.627 103.574 35.7194 103.901 35.9042C104.228 36.089 104.484 36.3449 104.668 36.6719C104.853 36.9989 104.946 37.3756 104.946 37.8021V41.5232H103.751V38.1219C103.751 37.8305 103.698 37.5853 103.591 37.3863C103.485 37.1801 103.332 37.0237 103.133 36.9171C102.941 36.8034 102.721 36.7465 102.472 36.7465C102.223 36.7465 101.999 36.8034 101.8 36.9171C101.608 37.0237 101.459 37.1801 101.352 37.3863C101.246 37.5924 101.192 37.8376 101.192 38.1219V41.5232H99.9876ZM112.076 41.6511C111.5 41.6511 110.963 41.5481 110.466 41.3419C109.975 41.1358 109.542 40.8479 109.165 40.4783C108.795 40.1087 108.504 39.6751 108.291 39.1775C108.085 38.6799 107.982 38.1362 107.982 37.5462C107.982 36.9562 108.085 36.4124 108.291 35.9149C108.504 35.4102 108.795 34.9766 109.165 34.6141C109.535 34.2444 109.968 33.9601 110.466 33.7611C110.963 33.555 111.5 33.4519 112.076 33.4519C112.659 33.4519 113.195 33.555 113.686 33.7611C114.183 33.9601 114.617 34.2444 114.987 34.6141C115.363 34.9837 115.655 35.4173 115.861 35.9149C116.067 36.4124 116.17 36.9562 116.17 37.5462C116.17 38.1362 116.064 38.6799 115.85 39.1775C115.644 39.6751 115.356 40.1087 114.987 40.4783C114.617 40.8479 114.183 41.1358 113.686 41.3419C113.188 41.5481 112.652 41.6511 112.076 41.6511ZM112.076 40.4996C112.488 40.4996 112.865 40.425 113.206 40.2757C113.554 40.1264 113.856 39.9203 114.112 39.6573C114.368 39.3872 114.567 39.0744 114.709 38.719C114.852 38.3565 114.923 37.9656 114.923 37.5462C114.923 37.1268 114.852 36.7394 114.709 36.384C114.567 36.0286 114.368 35.7158 114.112 35.4457C113.856 35.1756 113.554 34.9659 113.206 34.8167C112.865 34.6674 112.488 34.5927 112.076 34.5927C111.664 34.5927 111.283 34.6674 110.935 34.8167C110.594 34.9659 110.295 35.1756 110.039 35.4457C109.783 35.7158 109.584 36.0286 109.442 36.384C109.307 36.7394 109.24 37.1268 109.24 37.5462C109.24 37.9656 109.307 38.3565 109.442 38.719C109.584 39.0744 109.783 39.3872 110.039 39.6573C110.295 39.9203 110.597 40.1264 110.946 40.2757C111.294 40.425 111.671 40.4996 112.076 40.4996ZM118.11 41.5232V36.8425H117.044V35.7549H118.11V35.4564C118.11 35.0228 118.199 34.6603 118.376 34.3688C118.554 34.0703 118.799 33.8428 119.112 33.6865C119.432 33.5301 119.798 33.4519 120.21 33.4519C120.289 33.4519 120.377 33.459 120.477 33.4732C120.576 33.4803 120.658 33.491 120.722 33.5052V34.5501C120.665 34.5359 120.601 34.5288 120.53 34.5288C120.459 34.5217 120.402 34.5181 120.36 34.5181C120.04 34.5181 119.784 34.5927 119.592 34.742C119.4 34.8842 119.304 35.1223 119.304 35.4564V35.7549H122.066V36.8425H119.304V41.5232H118.11ZM122.279 41.5232V36.8425H121.223V35.7549H122.279V35.4564C122.279 35.0228 122.368 34.6603 122.545 34.3688C122.73 34.0703 122.979 33.8428 123.292 33.6865C123.612 33.5301 123.974 33.4519 124.379 33.4519C124.465 33.4519 124.557 33.459 124.657 33.4732C124.756 33.4803 124.838 33.491 124.902 33.5052V34.5501C124.838 34.5359 124.77 34.5288 124.699 34.5288C124.635 34.5217 124.578 34.5181 124.529 34.5181C124.209 34.5181 123.953 34.5927 123.761 34.742C123.576 34.8842 123.484 35.1223 123.484 35.4564V35.7549H124.806V36.8425H123.484V41.5232H122.279ZM128.618 41.5872C128.013 41.5872 127.544 41.4166 127.21 41.0754C126.876 40.7342 126.709 40.2544 126.709 39.636V36.8425H125.696V35.7549H125.856C126.126 35.7549 126.336 35.6767 126.485 35.5204C126.634 35.364 126.709 35.1507 126.709 34.8806V34.4328H127.914V35.7549H129.225V36.8425H127.914V39.5827C127.914 39.7817 127.946 39.9523 128.01 40.0945C128.074 40.2295 128.177 40.3361 128.319 40.4143C128.461 40.4854 128.646 40.5209 128.873 40.5209C128.93 40.5209 128.994 40.5174 129.065 40.5103C129.136 40.5032 129.204 40.4961 129.268 40.489V41.5232C129.168 41.5374 129.058 41.5516 128.937 41.5658C128.817 41.5801 128.71 41.5872 128.618 41.5872ZM132.119 41.6511C131.728 41.6511 131.383 41.5836 131.085 41.4486C130.793 41.3064 130.566 41.1145 130.402 40.8728C130.239 40.624 130.157 40.3326 130.157 39.9985C130.157 39.6857 130.225 39.405 130.36 39.1562C130.502 38.9074 130.719 38.6977 131.01 38.5271C131.301 38.3565 131.668 38.2357 132.108 38.1646L134.113 37.8341V38.783L132.343 39.0922C132.023 39.1491 131.788 39.2521 131.639 39.4014C131.49 39.5436 131.415 39.7284 131.415 39.9558C131.415 40.1762 131.497 40.3575 131.66 40.4996C131.831 40.6347 132.048 40.7022 132.311 40.7022C132.638 40.7022 132.922 40.6311 133.164 40.489C133.413 40.3468 133.605 40.1584 133.74 39.9239C133.875 39.6822 133.942 39.4156 133.942 39.1242V37.6421C133.942 37.3578 133.836 37.1268 133.622 36.9491C133.416 36.7643 133.139 36.6719 132.791 36.6719C132.471 36.6719 132.19 36.7572 131.948 36.9278C131.714 37.0913 131.54 37.3045 131.426 37.5675L130.424 37.0664C130.53 36.7821 130.704 36.5333 130.946 36.32C131.188 36.0997 131.469 35.9291 131.788 35.8082C132.115 35.6874 132.46 35.627 132.823 35.627C133.278 35.627 133.679 35.7123 134.027 35.8829C134.383 36.0535 134.657 36.2916 134.848 36.5972C135.047 36.8958 135.147 37.2441 135.147 37.6421V41.5232H133.995V40.4783L134.241 40.5103C134.106 40.7449 133.932 40.9474 133.718 41.118C133.512 41.2886 133.274 41.4201 133.004 41.5125C132.741 41.6049 132.446 41.6511 132.119 41.6511ZM136.556 41.5232V33.4519H137.761V38.8576L137.291 38.7404L140.181 35.7549H141.684L139.509 38.0686L141.78 41.5232H140.394L138.368 38.4631L139.083 38.3672L137.377 40.1798L137.761 39.3801V41.5232H136.556ZM145.209 41.6511C144.634 41.6511 144.122 41.5196 143.674 41.2566C143.233 40.9865 142.889 40.624 142.64 40.1691C142.391 39.7071 142.267 39.1917 142.267 38.6231C142.267 38.0402 142.391 37.5249 142.64 37.077C142.896 36.6292 143.237 36.2774 143.663 36.0215C144.09 35.7585 144.573 35.627 145.113 35.627C145.547 35.627 145.934 35.7016 146.276 35.8509C146.617 36.0002 146.905 36.2063 147.139 36.4693C147.374 36.7252 147.552 37.0202 147.672 37.3543C147.8 37.6883 147.864 38.0438 147.864 38.4205C147.864 38.5129 147.861 38.6089 147.854 38.7084C147.847 38.8079 147.832 38.9003 147.811 38.9856H143.216V38.026H147.129L146.553 38.4631C146.624 38.1148 146.599 37.8056 146.478 37.5355C146.364 37.2583 146.187 37.0415 145.945 36.8851C145.711 36.7216 145.433 36.6399 145.113 36.6399C144.794 36.6399 144.509 36.7216 144.26 36.8851C144.012 37.0415 143.82 37.269 143.685 37.5675C143.55 37.8589 143.496 38.2143 143.525 38.6337C143.489 39.0247 143.543 39.3659 143.685 39.6573C143.834 39.9487 144.04 40.1762 144.303 40.3397C144.573 40.5032 144.879 40.5849 145.22 40.5849C145.568 40.5849 145.863 40.5067 146.105 40.3503C146.354 40.194 146.549 39.9914 146.691 39.7426L147.672 40.2224C147.559 40.4925 147.381 40.7377 147.139 40.9581C146.905 41.1713 146.62 41.3419 146.286 41.4699C145.959 41.5907 145.6 41.6511 145.209 41.6511ZM149.04 41.5232V35.7549H150.192V36.9171L150.085 36.7465C150.213 36.3698 150.419 36.0997 150.703 35.9362C150.988 35.7656 151.329 35.6803 151.727 35.6803H152.079V36.7785H151.578C151.18 36.7785 150.856 36.9029 150.607 37.1517C150.366 37.3934 150.245 37.7417 150.245 38.1966V41.5232H149.04Z" fill="white"/>
<defs>
<filter id="filter0_i_1761_24996" x="0.761719" y="3.48346" width="32.3379" height="37.423" filterUnits="userSpaceOnUse" color-interpolation-filters="sRGB">
<feFlood flood-opacity="0" result="BackgroundImageFix"/>
<feBlend mode="normal" in="SourceGraphic" in2="BackgroundImageFix" result="shape"/>
<feColorMatrix in="SourceAlpha" type="matrix" values="0 0 0 0 0 0 0 0 0 0 0 0 0 0 0 0 0 0 127 0" result="hardAlpha"/>
<feOffset dy="0.866781"/>
<feGaussianBlur stdDeviation="1.62521"/>
<feComposite in2="hardAlpha" operator="arithmetic" k2="-1" k3="1"/>
<feColorMatrix type="matrix" values="0 0 0 0 0 0 0 0 0 0 0 0 0 0 0 0 0 0 0.25 0"/>
<feBlend mode="normal" in2="shape" result="effect1_innerShadow_1761_24996"/>
</filter>
</defs>
</svg>
