<svg width="101" height="98" viewBox="0 0 101 98" fill="none" xmlns="http://www.w3.org/2000/svg">
<g clip-path="url(#clip0_176_4815)">
<circle cx="48.5" cy="48.895" r="48.5" fill="#1A9D8C" fill-opacity="0.15"/>
<path d="M24.096 47.0709H24.6202V32.7092C24.6202 30.5046 25.4959 28.3904 27.0548 26.8316C28.6136 25.2727 30.7278 24.397 32.9324 24.397H63.3597C65.5642 24.397 67.6784 25.2727 69.2373 26.8316C70.7961 28.3904 71.6719 30.5046 71.6719 32.7092V111.499C71.6719 113.703 70.7961 115.818 69.2373 117.376C67.6784 118.935 65.5642 119.811 63.3597 119.811H32.9324C30.7278 119.811 28.6136 118.935 27.0548 117.376C25.4959 115.818 24.6202 113.703 24.6202 111.499V57.2938H24.096V47.0709Z" fill="#3F3D56"/>
<path d="M32.5969 26.5593H36.5688C36.3862 27.0071 36.3165 27.4929 36.3659 27.974C36.4152 28.4551 36.5821 28.9166 36.8519 29.318C37.1216 29.7194 37.486 30.0483 37.9128 30.2757C38.3396 30.5032 38.8157 30.6221 39.2993 30.6222H56.7307C57.2143 30.6221 57.6905 30.5031 58.1172 30.2757C58.544 30.0483 58.9083 29.7194 59.1781 29.318C59.4478 28.9166 59.6147 28.455 59.664 27.9739C59.7133 27.4929 59.6436 27.007 59.4609 26.5593H63.1705C64.8168 26.5593 66.3957 27.2133 67.5598 28.3774C68.7239 29.5415 69.3779 31.1204 69.3779 32.7667V111.441C69.3779 113.087 68.7238 114.666 67.5597 115.83C66.3956 116.994 64.8167 117.648 63.1705 117.648H32.5969C31.7818 117.648 30.9745 117.488 30.2214 117.176C29.4683 116.864 28.7839 116.407 28.2075 115.83C27.631 115.254 27.1737 114.57 26.8617 113.817C26.5497 113.064 26.3891 112.256 26.389 111.441V111.441V32.7667C26.389 31.1204 27.043 29.5415 28.2071 28.3774C29.3713 27.2133 30.9502 26.5593 32.5965 26.5593H32.5969Z" fill="white"/>
<path d="M29.3485 84.722H66.4343C66.6164 84.7218 66.791 84.6493 66.9197 84.5206C67.0485 84.3918 67.1209 84.2172 67.1211 84.0351V67.0067C67.1209 66.8246 67.0485 66.65 66.9197 66.5212C66.791 66.3924 66.6164 66.32 66.4343 66.3198H29.3485C29.1664 66.32 28.9918 66.3924 28.863 66.5212C28.7343 66.65 28.6618 66.8246 28.6617 67.0067V84.0353C28.6619 84.2173 28.7343 84.3919 28.8631 84.5206C28.9919 84.6494 29.1664 84.7218 29.3485 84.722ZM66.4343 66.5946C66.5435 66.5947 66.6482 66.6382 66.7255 66.7154C66.8027 66.7927 66.8462 66.8974 66.8463 67.0067V84.0353C66.8462 84.1445 66.8027 84.2493 66.7255 84.3265C66.6482 84.4037 66.5435 84.4472 66.4343 84.4473H29.3485C29.2393 84.4472 29.1345 84.4037 29.0573 84.3265C28.98 84.2493 28.9366 84.1445 28.9365 84.0353V67.0067C28.9366 66.8974 28.98 66.7927 29.0573 66.7154C29.1345 66.6382 29.2393 66.5947 29.3485 66.5946H66.4343Z" fill="#093731"/>
<path d="M29.6241 62.6088H46.1061C46.2882 62.6086 46.4628 62.5362 46.5916 62.4074C46.7204 62.2787 46.7928 62.1041 46.793 61.922V52.7225C46.7928 52.5404 46.7204 52.3658 46.5916 52.237C46.4628 52.1083 46.2882 52.0358 46.1061 52.0356H29.6241C29.442 52.0358 29.2674 52.1083 29.1387 52.237C29.0099 52.3658 28.9375 52.5404 28.9373 52.7225V61.9218C28.9374 62.104 29.0098 62.2786 29.1386 62.4074C29.2674 62.5362 29.442 62.6086 29.6241 62.6088ZM46.1067 52.3106C46.216 52.3107 46.3207 52.3541 46.3979 52.4314C46.4752 52.5086 46.5186 52.6134 46.5187 52.7226V61.922C46.5186 62.0312 46.4752 62.136 46.3979 62.2132C46.3207 62.2905 46.216 62.3339 46.1067 62.334H29.6241C29.5149 62.3339 29.4101 62.2905 29.3329 62.2132C29.2556 62.136 29.2122 62.0312 29.2121 61.922V52.7225C29.2122 52.6132 29.2556 52.5085 29.3329 52.4312C29.4101 52.354 29.5149 52.3106 29.6241 52.3104L46.1067 52.3106Z" fill="#093731"/>
<path d="M49.9517 106.973H66.4343C66.6164 106.973 66.791 106.901 66.9197 106.772C67.0485 106.643 67.1209 106.469 67.1211 106.287V89.1208C67.1209 88.9387 67.0484 88.7641 66.9197 88.6354C66.7909 88.5067 66.6163 88.4343 66.4343 88.4341H49.9517C49.7696 88.4343 49.595 88.5067 49.4663 88.6354C49.3375 88.7641 49.2651 88.9387 49.2648 89.1208V106.287C49.265 106.469 49.3374 106.643 49.4662 106.772C49.595 106.901 49.7696 106.973 49.9517 106.974V106.973ZM66.4343 88.7087C66.5435 88.7088 66.6482 88.7523 66.7255 88.8295C66.8027 88.9068 66.8462 89.0115 66.8463 89.1208V106.287C66.8462 106.396 66.8027 106.501 66.7255 106.578C66.6482 106.655 66.5435 106.699 66.4343 106.699H49.9517C49.8424 106.699 49.7377 106.655 49.6604 106.578C49.5832 106.501 49.5397 106.396 49.5396 106.287V89.1208C49.5397 89.0115 49.5832 88.9068 49.6604 88.8295C49.7377 88.7523 49.8424 88.7088 49.9517 88.7087H66.4343Z" fill="#093731"/>
<path d="M29.6241 106.973H46.1061C46.2882 106.973 46.4628 106.901 46.5916 106.772C46.7204 106.643 46.7928 106.469 46.793 106.287V89.1208C46.7927 88.9387 46.7203 88.7641 46.5915 88.6354C46.4628 88.5067 46.2882 88.4343 46.1061 88.4341H29.6241C29.442 88.4343 29.2674 88.5067 29.1387 88.6355C29.0099 88.7642 28.9375 88.9388 28.9373 89.1209V106.287C28.9375 106.469 29.0099 106.643 29.1387 106.772C29.2674 106.901 29.442 106.973 29.6241 106.974V106.973ZM46.1061 88.7087C46.2154 88.7088 46.3201 88.7523 46.3974 88.8295C46.4746 88.9068 46.5181 89.0115 46.5182 89.1208V106.287C46.5181 106.396 46.4746 106.501 46.3974 106.578C46.3201 106.655 46.2154 106.699 46.1061 106.699H29.6241C29.5149 106.699 29.4101 106.655 29.3329 106.578C29.2556 106.501 29.2122 106.396 29.2121 106.287V89.1208C29.2122 89.0115 29.2556 88.9068 29.3329 88.8295C29.4101 88.7523 29.5149 88.7088 29.6241 88.7087H46.1061Z" fill="#093731"/>
<path d="M49.9657 62.6103H65.4277L61.7895 56.3077C61.7243 56.1947 61.6305 56.1009 61.5176 56.0356C61.4046 55.9704 61.2765 55.9361 61.146 55.9361C61.0156 55.9361 60.8874 55.9704 60.7745 56.0356C60.6615 56.1009 60.5677 56.1947 60.5025 56.3077L58.948 59.0001L56.3046 54.4218C56.2229 54.2803 56.1055 54.1629 55.9641 54.0812C55.8226 53.9995 55.6622 53.9565 55.4989 53.9565C55.3356 53.9565 55.1751 53.9995 55.0337 54.0812C54.8923 54.1629 54.7748 54.2803 54.6932 54.4218L49.9657 62.6103ZM64.9521 62.3356H50.4421L54.9318 54.5599C54.9893 54.4602 55.072 54.3775 55.1717 54.3199C55.2713 54.2624 55.3844 54.2321 55.4995 54.2321C55.6145 54.2321 55.7276 54.2624 55.8272 54.3199C55.9269 54.3775 56.0096 54.4602 56.0672 54.5599L58.9476 59.5495L60.74 56.4451C60.7811 56.3739 60.8402 56.3147 60.9114 56.2736C60.9826 56.2325 61.0634 56.2109 61.1456 56.2109C61.2278 56.2109 61.3085 56.2325 61.3797 56.2736C61.4509 56.3147 61.51 56.3739 61.5511 56.4451L64.9521 62.3356Z" fill="#093731"/>
<path d="M30.1874 62.6103H45.6494L42.0112 56.3077C41.946 56.1947 41.8522 56.1009 41.7392 56.0356C41.6263 55.9704 41.4981 55.9361 41.3677 55.9361C41.2372 55.9361 41.1091 55.9704 40.9961 56.0356C40.8832 56.1009 40.7894 56.1947 40.7242 56.3077L39.1699 59.0001L36.5263 54.4218C36.4446 54.2803 36.3272 54.1629 36.1857 54.0812C36.0443 53.9995 35.8839 53.9565 35.7206 53.9565C35.5573 53.9565 35.3968 53.9995 35.2554 54.0812C35.114 54.1629 34.9965 54.2803 34.9149 54.4218L30.1874 62.6103ZM45.1737 62.3356H30.6638L35.1534 54.5599C35.211 54.4602 35.2937 54.3775 35.3934 54.3199C35.493 54.2624 35.6061 54.2321 35.7211 54.2321C35.8362 54.2321 35.9493 54.2624 36.0489 54.3199C36.1486 54.3775 36.2313 54.4602 36.2888 54.5599L39.1699 59.5495L40.9623 56.4451C41.0034 56.3739 41.0625 56.3147 41.1337 56.2736C41.2049 56.2325 41.2856 56.2109 41.3678 56.2109C41.45 56.2109 41.5308 56.2325 41.602 56.2736C41.6732 56.3147 41.7323 56.3739 41.7734 56.4451L45.1737 62.3356Z" fill="#093731"/>
<path d="M49.9517 62.6086H66.4343C66.6164 62.6084 66.791 62.536 66.9197 62.4073C67.0485 62.2785 67.1209 62.1039 67.1211 61.9218V52.7223C67.1209 52.5402 67.0485 52.3656 66.9197 52.2368C66.791 52.1081 66.6164 52.0357 66.4343 52.0355H49.9517C49.7696 52.0357 49.595 52.1081 49.4662 52.2368C49.3374 52.3656 49.265 52.5402 49.2648 52.7223V61.9217C49.265 62.1038 49.3374 62.2783 49.4662 62.4071C49.595 62.5359 49.7696 62.6083 49.9517 62.6085V62.6086ZM66.4343 52.3104C66.5435 52.3105 66.6482 52.354 66.7255 52.4312C66.8027 52.5085 66.8462 52.6132 66.8463 52.7224V61.9218C66.8462 62.031 66.8027 62.1358 66.7255 62.213C66.6482 62.2903 66.5435 62.3337 66.4343 62.3338H49.9517C49.8424 62.3337 49.7377 62.2903 49.6604 62.213C49.5832 62.1358 49.5397 62.031 49.5396 61.9218V52.7223C49.5397 52.6131 49.5832 52.5083 49.6604 52.4311C49.7377 52.3538 49.8424 52.3104 49.9517 52.3103L66.4343 52.3104Z" fill="#093731"/>
<path d="M62.9224 91.9741C63.0461 91.9741 63.1647 92.0232 63.2521 92.1107C63.3395 92.1981 63.3887 92.3167 63.3887 92.4404C63.3887 92.564 63.3395 92.6826 63.2521 92.7701C63.1647 92.8575 63.0461 92.9066 62.9224 92.9066H53.4641C53.3404 92.9066 53.2218 92.8575 53.1344 92.7701C53.047 92.6826 52.9978 92.564 52.9978 92.4404C52.9978 92.3167 53.047 92.1981 53.1344 92.1107C53.2218 92.0232 53.3404 91.9741 53.4641 91.9741H62.9224Z" fill="#093731"/>
<path d="M62.9224 94.7212C63.0461 94.7212 63.1647 94.7703 63.2521 94.8578C63.3395 94.9452 63.3887 95.0638 63.3887 95.1875C63.3887 95.3111 63.3395 95.4297 63.2521 95.5172C63.1647 95.6046 63.0461 95.6537 62.9224 95.6537H53.4641C53.3404 95.6537 53.2218 95.6046 53.1344 95.5172C53.047 95.4297 52.9978 95.3111 52.9978 95.1875C52.9978 95.0638 53.047 94.9452 53.1344 94.8578C53.2218 94.7703 53.3404 94.7212 53.4641 94.7212H62.9224Z" fill="#093731"/>
<path d="M37.864 91.9741C37.2836 91.9741 36.7161 92.1462 36.2335 92.4687C35.7509 92.7912 35.3747 93.2496 35.1526 93.7858C34.9305 94.3221 34.8724 94.9122 34.9856 95.4815C35.0988 96.0508 35.3784 96.5737 35.7888 96.9842C36.1992 97.3946 36.7222 97.6741 37.2915 97.7874C37.8608 97.9006 38.4509 97.8425 38.9871 97.6203C39.5234 97.3982 39.9817 97.022 40.3042 96.5394C40.6267 96.0568 40.7988 95.4894 40.7988 94.9089C40.7979 94.1308 40.4884 93.3849 39.9382 92.8347C39.3881 92.2845 38.6421 91.975 37.864 91.9741ZM37.864 97.5691C37.3379 97.569 36.8236 97.4129 36.3862 97.1206C35.9488 96.8282 35.6079 96.4127 35.4067 95.9266C35.2054 95.4405 35.1528 94.9057 35.2554 94.3897C35.3581 93.8737 35.6115 93.3997 35.9836 93.0278C36.3556 92.6558 36.8296 92.4025 37.3456 92.2998C37.8616 92.1972 38.3965 92.2499 38.8825 92.4513C39.3686 92.6527 39.784 92.9936 40.0763 93.4311C40.3686 93.8685 40.5246 94.3828 40.5246 94.9089C40.5238 95.6142 40.2432 96.2903 39.7445 96.789C39.2458 97.2877 38.5697 97.5683 37.8644 97.5691H37.864Z" fill="#093731"/>
<path d="M29.3485 48.3235H66.4343C66.8133 48.3235 67.1205 48.1467 67.1211 47.9288V38.1451C67.1211 37.9272 66.8135 37.7507 66.4343 37.7504H29.3485C28.9694 37.7504 28.6622 37.9272 28.6617 38.1451V47.929C28.6621 48.1467 28.9694 48.3232 29.3485 48.3235ZM66.4343 37.9082C66.6617 37.9082 66.846 38.0142 66.8463 38.1449V47.9288C66.8463 48.0595 66.6617 48.1654 66.4343 48.1655H29.3485C29.1211 48.1655 28.9367 48.0595 28.9365 47.9288V38.1451C28.9365 38.0144 29.1211 37.9085 29.3485 37.9084L66.4343 37.9082Z" fill="url(#paint0_linear_176_4815)"/>
<rect x="28.5615" y="37.0396" width="38.8" height="11.8556" fill="url(#paint1_linear_176_4815)"/>
</g>
<rect x="64.1279" y="2.55029" width="34.4889" height="34.4889" rx="17.2444" fill="#093731"/>
<g clip-path="url(#clip1_176_4815)">
<path d="M80.3876 25.8913C81.0227 25.2562 81.3402 24.4941 81.3402 23.605C81.3402 22.7159 81.0227 21.9538 80.3876 21.3187C79.7525 20.6836 78.9904 20.366 78.1013 20.366C77.2122 20.366 76.4501 20.6836 75.815 21.3187C75.1799 21.9538 74.8624 22.7159 74.8624 23.605C74.8624 24.4941 75.1799 25.2562 75.815 25.8913C76.4501 26.5264 77.2122 26.8439 78.1013 26.8439C78.9904 26.8439 79.7525 26.5264 80.3876 25.8913ZM82.6739 28.1776C81.4038 29.4478 79.8795 30.0829 78.1013 30.0829C76.3231 30.0829 74.7989 29.4478 73.5287 28.1776C72.2585 26.9074 71.6234 25.3832 71.6234 23.605C71.6234 21.8267 72.2585 20.3025 73.5287 19.0324C74.5575 18.0035 75.7484 17.3969 77.1014 17.2125C78.4539 17.0285 79.7144 17.216 80.883 17.7749L87.2656 11.3923L90.2759 11.3923L90.657 17.108L87.2465 17.5081V20.5566H84.1981L83.9314 20.8233C84.5284 22.0554 84.7126 23.3446 84.4839 24.691C84.2553 26.0374 83.652 27.1996 82.6739 28.1776Z" fill="white"/>
</g>
<defs>
<linearGradient id="paint0_linear_176_4815" x1="44.0634" y1="40.0958" x2="45.1132" y2="48.6638" gradientUnits="userSpaceOnUse">
<stop stop-color="#FFEC9D"/>
<stop offset="0.534375" stop-color="#FFC700"/>
<stop offset="1" stop-color="#FFCD00"/>
</linearGradient>
<linearGradient id="paint1_linear_176_4815" x1="51.8234" y1="39.6694" x2="50.5196" y2="49.2435" gradientUnits="userSpaceOnUse">
<stop stop-color="#FFEC9D"/>
<stop offset="0.534375" stop-color="#FFC700"/>
<stop offset="1" stop-color="#FFCD00"/>
</linearGradient>
<clipPath id="clip0_176_4815">
<rect y="0.39502" width="97" height="97" rx="48.5" fill="white"/>
</clipPath>
<clipPath id="clip1_176_4815">
<rect width="25.8667" height="25.8667" fill="white" transform="translate(63.6211 19.7944) rotate(-45)"/>
</clipPath>
</defs>
</svg>
